# xmcd
#
# Track frame offsets:
#	300
#	18660
#	37306
#	54450
#	75312
#	89520
#	107771
#	130520
#	153396
#	169755
#	185459
#	201934
#
# Disc length: 2881 seconds
#
# Revision: 1
# Processed by: cddbd v1.5.2PL0 Copyright (c) Steve Scherf et al.
# Submitted via: audiograbber 1.83.01
#
DISCID=9c0b3d0c
DTITLE=Various Artist - Street Beats V11 S06 CD1
DYEAR=1900
DGENRE=R&B
TTITLE0=Bon Garcon - Shake Shake (Street Mix)
TTITLE1=Beyonce Ft Jay-Z - Crazy In Love
TTITLE2=Blu Cantrell Ft Sean Paul - Breathe (Remix)
TTITLE3=Common Ft Erykah Badu, Pharrell and Q-Tip - Come Close (Remix)
TTITLE4=DJ Kayslay Ft Loon, Amerie and Foxy Brown - Too Much For Me (Remix)
TTITLE5=T Banks - Too Late
TTITLE6=Larry Gold - And I Hope Ft Floetry
TTITLE7=Dead Prez - Hell Yeah
TTITLE8=McKay - Take Me Over
TTITLE9=Outlandish - Aicha
TTITLE10=Stylophonic Ft Shock-G and Humpty Hump - Way Of Life (Fusion Remix)
TTITLE11=Da'ville - So Smooth
EXTD=
EXTT0=
EXTT1=
EXTT2=
EXTT3=
EXTT4=
EXTT5=
EXTT6=
EXTT7=
EXTT8=
EXTT9=
EXTT10=
EXTT11=
PLAYORDER=
